<?xml version="1.0" standalone="no"?>
<!DOCTYPE svg PUBLIC "-//W3C//DTD SVG 20010904//EN"
 "http://www.w3.org/TR/2001/REC-SVG-20010904/DTD/svg10.dtd">
<svg version="1.0" xmlns="http://www.w3.org/2000/svg"
 width="4000.000000pt" height="4000.000000pt" viewBox="0 0 4000.000000 4000.000000"
 preserveAspectRatio="xMidYMid meet">
<metadata>
Created by potrace 1.15, written by Peter Selinger 2001-2017
</metadata>
<g transform="translate(0.000000,4000.000000) scale(0.100000,-0.100000)"
fill="#000000" stroke="none">
<path d="M2300 30870 l0 -860 2080 0 2080 0 0 -10010 0 -10010 -2080 0 -2080
0 0 -860 0 -860 3130 0 3130 0 0 11730 0 11730 -3130 0 -3130 0 0 -860z"/>
<path d="M12560 20000 l0 -11730 3130 0 3130 0 0 860 0 860 -2080 0 -2080 0 0
10010 0 10010 2080 0 2080 0 0 860 0 860 -3130 0 -3130 0 0 -11730z"/>
<path d="M21180 30870 l0 -860 2080 0 2080 0 0 -10010 0 -10010 -2080 0 -2080
0 0 -860 0 -860 3130 0 3130 0 0 11730 0 11730 -3130 0 -3130 0 0 -860z"/>
<path d="M31430 20000 l0 -11730 3130 0 3130 0 0 860 0 860 -2080 0 -2080 0 0
10010 0 10010 2080 0 2080 0 0 860 0 860 -3130 0 -3130 0 0 -11730z"/>
</g>
</svg>
