<svg xmlns="http://www.w3.org/2000/svg" viewBox="0 0 480 480"><path d="M434.344 378.344L400 412.688l-18.344-18.344-11.312 11.312 24 24c1.56 1.56 3.608 2.344 5.656 2.344 2.048 0 4.096-.784 5.656-2.344l40-40-11.312-11.312z"/><path d="M272 336c4.416 0 8-3.576 8-8v-16h192c4.416 0 8-3.576 8-8V32c0-4.424-3.584-8-8-8h-24V8c0-4.424-3.584-8-8-8h-96c-4.416 0-8 3.576-8 8v16h-24c-4.416 0-8 3.576-8 8v72h-72V64h40c4.416 0 8-3.576 8-8V8c0-4.424-3.584-8-8-8h-96c-4.416 0-8 3.576-8 8v48c0 4.424 3.584 8 8 8h40v40h-72V32c0-4.424-3.584-8-8-8h-24V8c0-4.424-3.584-8-8-8H8C3.584 0 0 3.576 0 8v48c0 4.424 3.584 8 8 8h96c4.416 0 8-3.576 8-8V40h16v72c0 4.424 3.584 8 8 8h80v24h-40c-4.416 0-8 3.576-8 8v48c0 4.424 3.584 8 8 8h40v24H112v-16c0-4.424-3.584-8-8-8H64v-24h40c4.416 0 8-3.576 8-8v-48c0-4.424-3.584-8-8-8H8c-4.416 0-8 3.576-8 8v48c0 4.424 3.584 8 8 8h40v24H8c-4.416 0-8 3.576-8 8v48c0 4.424 3.584 8 8 8h96c4.416 0 8-3.576 8-8v-16h104v24h-40c-4.416 0-8 3.576-8 8v48c0 4.424 3.584 8 8 8h40v40h-40c-4.416 0-8 3.576-8 8v48c0 4.424 3.584 8 8 8h96c4.416 0 8-3.576 8-8v-16h56.472c4 35.944 34.536 64 71.528 64 39.696 0 72-32.296 72-72s-32.304-72-72-72c-36.992 0-67.536 28.056-71.528 64H280v-16c0-4.424-3.584-8-8-8h-40v-40h40zM96 48H16V16h80v32zM16 168v-32h80v32H16zm80 88H16v-32h80v32zm312 96c30.88 0 56 25.128 56 56s-25.12 56-56 56-56-25.128-56-56 25.12-56 56-56zM352 16h80v32h-80V16zm-40 104c4.416 0 8-3.576 8-8V40h16v16c0 4.424 3.584 8 8 8h96c4.416 0 8-3.576 8-8V40h16v256H280v-16c0-4.424-3.584-8-8-8h-40v-64h40c4.416 0 8-3.576 8-8v-48c0-4.424-3.584-8-8-8h-40v-24h80zM184 48V16h80v32h-80zm0 144v-32h80v32h-80zm80 200v32h-80v-32h80zm-80-72v-32h80v32h-80z"/></svg>