<svg xmlns="http://www.w3.org/2000/svg" viewBox="0 0 511 511"><path d="M471.5 167c21.78 0 39.5-17.72 39.5-39.5v-64c0-21.78-17.72-39.5-39.5-39.5h-432C17.72 24 0 41.72 0 63.5v64C0 149.28 17.72 167 39.5 167H248v17H39.5C17.72 184 0 201.72 0 223.5v64C0 309.28 17.72 327 39.5 327H248v17H39.5C17.72 344 0 361.72 0 383.5v64C0 469.28 17.72 487 39.5 487h432c21.78 0 39.5-17.72 39.5-39.5v-64c0-21.78-17.72-39.5-39.5-39.5H263v-17h208.5c21.78 0 39.5-17.72 39.5-39.5v-64c0-21.78-17.72-39.5-39.5-39.5H263v-17h208.5zM496 383.5v64c0 13.51-10.991 24.5-24.5 24.5h-432C25.991 472 15 461.01 15 447.5v-64c0-13.51 10.991-24.5 24.5-24.5h432c13.509 0 24.5 10.99 24.5 24.5zm0-160v64c0 13.51-10.991 24.5-24.5 24.5h-432C25.991 312 15 301.01 15 287.5v-64c0-13.51 10.991-24.5 24.5-24.5h432c13.509 0 24.5 10.99 24.5 24.5zm-481-96v-64C15 49.99 25.991 39 39.5 39h432c13.509 0 24.5 10.99 24.5 24.5v64c0 13.51-10.991 24.5-24.5 24.5h-432C25.991 152 15 141.01 15 127.5z"/><path d="M71.5 64C54.131 64 40 78.131 40 95.5S54.131 127 71.5 127 103 112.869 103 95.5 88.869 64 71.5 64zm0 48c-9.098 0-16.5-7.402-16.5-16.5S62.402 79 71.5 79 88 86.402 88 95.5 80.598 112 71.5 112zM143.5 72C130.542 72 120 82.542 120 95.5s10.542 23.5 23.5 23.5S167 108.458 167 95.5 156.458 72 143.5 72zm0 32c-4.687 0-8.5-3.813-8.5-8.5s3.813-8.5 8.5-8.5 8.5 3.813 8.5 8.5-3.813 8.5-8.5 8.5zM71.5 224C54.131 224 40 238.131 40 255.5S54.131 287 71.5 287s31.5-14.131 31.5-31.5S88.869 224 71.5 224zm0 48c-9.098 0-16.5-7.402-16.5-16.5S62.402 239 71.5 239 88 246.402 88 255.5 80.598 272 71.5 272zM143.5 232c-12.958 0-23.5 10.542-23.5 23.5s10.542 23.5 23.5 23.5 23.5-10.542 23.5-23.5-10.542-23.5-23.5-23.5zm0 32c-4.687 0-8.5-3.813-8.5-8.5s3.813-8.5 8.5-8.5 8.5 3.813 8.5 8.5-3.813 8.5-8.5 8.5zM455.5 264h-264c-4.142 0-7.5 3.357-7.5 7.5s3.358 7.5 7.5 7.5h264c4.142 0 7.5-3.357 7.5-7.5s-3.358-7.5-7.5-7.5zM184 239.5c0 4.143 3.358 7.5 7.5 7.5h264c4.142 0 7.5-3.357 7.5-7.5s-3.358-7.5-7.5-7.5h-264c-4.142 0-7.5 3.357-7.5 7.5zM463 111.5c0-4.143-3.358-7.5-7.5-7.5h-264c-4.142 0-7.5 3.357-7.5 7.5s3.358 7.5 7.5 7.5h264c4.142 0 7.5-3.357 7.5-7.5zM191.5 87h264c4.142 0 7.5-3.357 7.5-7.5s-3.358-7.5-7.5-7.5h-264c-4.142 0-7.5 3.357-7.5 7.5s3.358 7.5 7.5 7.5zM71.5 384C54.131 384 40 398.131 40 415.5S54.131 447 71.5 447s31.5-14.131 31.5-31.5S88.869 384 71.5 384zm0 48c-9.098 0-16.5-7.402-16.5-16.5S62.402 399 71.5 399 88 406.402 88 415.5 80.598 432 71.5 432zM143.5 392c-12.958 0-23.5 10.542-23.5 23.5s10.542 23.5 23.5 23.5 23.5-10.542 23.5-23.5-10.542-23.5-23.5-23.5zm0 32c-4.687 0-8.5-3.813-8.5-8.5s3.813-8.5 8.5-8.5 8.5 3.813 8.5 8.5-3.813 8.5-8.5 8.5zM455.5 424h-264c-4.142 0-7.5 3.357-7.5 7.5s3.358 7.5 7.5 7.5h264c4.142 0 7.5-3.357 7.5-7.5s-3.358-7.5-7.5-7.5zM184 399.5c0 4.143 3.358 7.5 7.5 7.5h264c4.142 0 7.5-3.357 7.5-7.5s-3.358-7.5-7.5-7.5h-264c-4.142 0-7.5 3.357-7.5 7.5z"/></svg>